<?xml version="1.0" encoding="utf-8"?>
<!-- Generator: Adobe Illustrator 22.1.0, SVG Export Plug-In . SVG Version: 6.00 Build 0)  -->
<svg version="1.1" id="Capa_1" xmlns="http://www.w3.org/2000/svg" xmlns:xlink="http://www.w3.org/1999/xlink" x="0px" y="0px"
	 viewBox="0 0 99 99" style="enable-background:new 0 0 99 99;" xml:space="preserve">
<g>
	<path d="M98.7,61.6c-5.4-11.2-11.7-21.8-21.1-30.2C70.9,25.3,63.2,21.3,54,21.1c-8.4,0-15.3,3.5-21.4,8.6
		C17.9,41.9,8.6,58,0.3,74.8c-0.8,1.6,0.1,2,1.3,2.5c4.8,1.7,8.8,0.1,11.3-4.4c3.6-6.3,7.2-12.6,11.1-18.6c4.5-7,9.8-13.4,16.7-18.3
		c8.8-6.4,18.7-6.4,27.3,0.2c2.6,1.9,5.1,4.1,7,6.7c4,5.5,7.6,11.3,11.1,17.1c2.6,4.3,7,5.9,11.5,4C98.8,63.5,99.4,63,98.7,61.6z"/>
	<path d="M64.6,50C57.4,50,50.2,50,42.9,50c-3.9,0-7,2.4-8,5.9c-0.8,2.6-0.3,3.2,2.4,3.3c5.4,0,10.9,0,16.3,0c5.6,0,11.2,0,16.8,0
		c2.4,0,2.8-0.6,2.3-3C71.9,52.7,68.6,50.1,64.6,50z"/>
</g>
</svg>
